HIERARCHY
ROOT SpineBase
{
  OFFSET 0.000000 0.000000 0.000000
  CHANNELS 6 Xposition Yposition Zposition Zrotation Xrotation Yrotation
  JOINT SpineMid
  {
    OFFSET 0.000000 24.347883 0.000000
    CHANNELS 3 Zrotation Xrotation Yrotation
    JOINT SpineShoulder
    {
      OFFSET 0.025787 17.988935 -0.614114
      CHANNELS 3 Zrotation Xrotation Yrotation
      JOINT Neck
      {
        OFFSET 0.046536 5.932722 -0.454893
        CHANNELS 3 Zrotation Xrotation Yrotation
        JOINT Head
        {
          OFFSET 1.654582 9.988675 3.391493
          CHANNELS 3 Zrotation Xrotation Yrotation
          End Site
          {
            OFFSET 0 0 0
          }
        }
      }
      JOINT ShoulderLeft
      {
        OFFSET -3.847958 -4.813539 -11.436215
        CHANNELS 3 Zrotation Xrotation Yrotation
        JOINT ElbowLeft
        {
          OFFSET -0.415846 -19.698163 -5.564985
          CHANNELS 3 Zrotation Xrotation Yrotation
          JOINT WristLeft
          {
            OFFSET 3.528684 -20.825168 1.611118
            CHANNELS 3 Zrotation Xrotation Yrotation
            JOINT HandLeft
            {
              OFFSET 0.311896 -5.912812 2.573141
              CHANNELS 3 Zrotation Xrotation Yrotation
              JOINT HandTipLeft
              {
                OFFSET 1.774546 -6.074618 -0.867586
                CHANNELS 3 Zrotation Xrotation Yrotation
                End Site
                {
                  OFFSET 0 0 0
                }
              }
              JOINT ThumbLeft
              {
                OFFSET 3.846742 2.238393 3.204756
                CHANNELS 3 Zrotation Xrotation Yrotation
                End Site
                {
                  OFFSET 0 0 0
                }
              }
            }
          }
        }
      }
      JOINT ShoulderRight
      {
        OFFSET 6.827541 -5.300286 12.681288
        CHANNELS 3 Zrotation Xrotation Yrotation
        JOINT ElbowRight
        {
          OFFSET 1.775881 -25.148655 -14.401341
          CHANNELS 3 Zrotation Xrotation Yrotation
          JOINT WristRight
          {
            OFFSET 0.157798 -18.131355 20.148585
            CHANNELS 3 Zrotation Xrotation Yrotation
            JOINT HandRight
            {
              OFFSET -0.382248 -13.301994 6.901996
              CHANNELS 3 Zrotation Xrotation Yrotation
              JOINT HandTipRight
              {
                OFFSET 0.119258 -3.564995 0.987490
                CHANNELS 3 Zrotation Xrotation Yrotation
                End Site
                {
                  OFFSET 0 0 0
                }
              }
              JOINT ThumbRight
              {
                OFFSET 1.297170 0.996863 -0.842376
                CHANNELS 3 Zrotation Xrotation Yrotation
                End Site
                {
                  OFFSET 0 0 0
                }
              }
            }
          }
        }
      }
    }
  }
  JOINT HipLeft
  {
    OFFSET -1.455645 1.684992 -7.323303
    CHANNELS 3 Zrotation Xrotation Yrotation
    JOINT KneeLeft
    {
      OFFSET -7.434361 -41.170156 6.991262
      CHANNELS 3 Zrotation Xrotation Yrotation
      JOINT AnkleLeft
      {
        OFFSET -4.630566 -35.897273 5.053043
        CHANNELS 3 Zrotation Xrotation Yrotation
        JOINT FootLeft
        {
          OFFSET 3.257290 -5.915031 -0.762869
          CHANNELS 3 Zrotation Xrotation Yrotation
          End Site
          {
            OFFSET 0 0 0
          }
        }
      }
    }
  }
  JOINT HipRight
  {
    OFFSET 2.266016 -0.925520 1.723381
    CHANNELS 3 Zrotation Xrotation Yrotation
    JOINT KneeRight
    {
      OFFSET -5.293313 -40.601322 9.886077
      CHANNELS 3 Zrotation Xrotation Yrotation
      JOINT AnkleRight
      {
        OFFSET -8.335920 -32.293820 -3.536203
        CHANNELS 3 Zrotation Xrotation Yrotation
        JOINT FootRight
        {
          OFFSET 2.648903 -4.503795 4.815833
          CHANNELS 3 Zrotation Xrotation Yrotation
          End Site
          {
            OFFSET 0 0 0
          }
        }
      }
    }
  }
}
MOTION
Frames: 9
Frame Time: 0.033333
-51.555636 82.064760 344.969559 -0.000000 0.000000 -67.638519 -0.000000 0.000000 67.638519 -0.000000 0.000000 0.000000 -0.000000 0.000000 0.000000 0.000000 0.000000 0.000000 -0.000000 0.000000 0.000000 -0.000000 0.000000 0.000000 -0.000000 0.000000 0.000000 -0.000000 0.000000 0.000000 0.000000 0.000000 0.000000 0.000000 0.000000 0.000000 -0.000000 0.000000 0.000000 -0.000000 0.000000 0.000000 -0.000000 0.000000 0.000000 -0.000000 0.000000 0.000000 0.000000 0.000000 0.000000 0.000000 0.000000 0.000000 -0.000000 0.000000 67.638519 -0.000000 0.000000 0.000000 -0.000000 0.000000 0.000000 0.000000 0.000000 0.000000 -0.000000 0.000000 67.638519 -0.000000 0.000000 0.000000 -0.000000 0.000000 0.000000 0.000000 0.000000 0.000000
-51.324098 82.198075 345.195335 0.493567 -0.281169 -68.436935 -0.442889 -0.355688 68.436771 -0.000000 0.000000 0.000000 -0.000000 0.000000 0.000000 0.000000 0.000000 0.000000 -0.000000 0.000000 0.000000 -0.000000 0.000000 0.000000 -0.000000 0.000000 0.000000 -0.000000 0.000000 0.000000 0.000000 0.000000 0.000000 0.000000 0.000000 0.000000 -0.108127 -3.206118 -0.170308 0.214019 5.583917 0.315170 -0.724835 -1.584237 -0.517240 3.128019 2.582075 1.122244 0.000000 0.000000 0.000000 0.000000 0.000000 0.000000 -0.442889 -0.355688 68.436771 -0.000000 0.000000 0.000000 -0.768420 0.456997 0.354957 0.000000 0.000000 0.000000 -1.340066 -0.248500 68.261828 0.906702 -4.589938 1.096512 -4.201168 9.616217 -0.948515 0.000000 0.000000 0.000000
-51.144410 82.339642 345.380563 0.885498 -0.503799 -68.975505 -0.787947 -0.645806 68.974958 -0.000000 0.000000 0.000000 -0.821869 -1.134035 0.459774 0.000000 0.000000 0.000000 -0.321086 -0.742854 0.104497 0.322467 0.742256 -0.108668 0.656918 0.400395 0.305077 -0.659056 -0.396865 -0.309655 0.000000 0.000000 0.000000 0.000000 0.000000 0.000000 -0.213821 -5.942823 -0.318185 0.381883 10.278492 0.563560 -1.435534 -2.696477 -1.051169 6.407087 5.216633 2.240351 0.000000 0.000000 0.000000 0.000000 0.000000 0.000000 -0.787947 -0.645806 68.974958 -0.000000 0.000000 0.000000 -1.280596 0.660312 0.539084 0.000000 0.000000 0.000000 -2.510366 -0.482141 68.626411 1.792009 -8.335344 2.055740 -7.493401 17.201358 -1.102070 0.000000 0.000000 0.000000
-51.016570 82.489461 345.525243 1.174370 -0.667077 -69.273199 -1.039527 -0.862287 69.272213 0.816737 -0.003541 0.062681 -1.873094 -1.587308 0.546688 0.000000 0.000000 0.000000 -1.216913 -0.973587 0.067707 0.401394 0.977524 -0.137140 0.720452 0.584279 0.341321 -0.723957 -0.579930 -0.348658 0.000000 0.000000 0.000000 0.000000 0.000000 0.000000 -1.134811 -8.087508 -0.498136 0.512017 13.916844 0.746204 -2.106001 -3.310920 -1.568053 9.692485 7.638347 3.312618 0.000000 0.000000 0.000000 0.000000 0.000000 0.000000 -1.942555 -1.058988 69.031559 0.506707 -0.772777 0.228931 -1.535902 0.613959 0.548090 0.000000 0.000000 0.000000 -3.518562 -0.680361 68.753713 2.614585 -11.210045 2.844715 -10.029606 22.738098 -0.865883 0.000000 0.000000 0.000000
-50.940580 82.647533 345.629375 1.358792 -0.770220 -69.342411 -0.686656 -0.208103 69.378243 0.023845 0.217041 0.038792 -2.117649 -1.991976 0.634832 0.000000 0.000000 0.000000 -1.369501 -1.137725 0.066692 0.425322 1.122455 -0.147626 0.588158 0.745861 0.292221 -0.592004 -0.742812 -0.299887 0.000000 0.000000 0.000000 0.000000 0.000000 0.000000 -1.344511 -9.579030 -0.586201 0.610864 16.374066 0.863337 -2.706662 -3.424742 -2.030266 12.777412 9.462122 4.308402 0.000000 0.000000 0.000000 0.000000 0.000000 0.000000 -2.282059 -1.161431 69.057506 0.537571 -0.952630 0.267632 -1.534253 0.317854 0.379842 0.000000 0.000000 0.000000 -4.370763 -0.828268 68.658767 3.339425 -13.212367 3.434135 -11.853841 26.323609 -0.531336 0.000000 0.000000 0.000000
-50.916440 82.813857 345.692958 1.437384 -0.812454 -69.189718 -0.725122 -0.195226 69.228499 0.004711 0.249745 0.039937 -2.171921 -2.333951 0.678489 0.000000 0.000000 0.000000 -1.395059 -1.222189 0.054675 0.394373 1.177356 -0.139928 0.263568 0.879091 0.159563 -0.266046 -0.878344 -0.163625 0.000000 0.000000 0.000000 0.000000 0.000000 0.000000 -1.456433 -10.345256 -0.623608 0.682288 17.569038 0.915298 -3.207626 -3.055541 -2.400524 15.403480 10.212494 5.214658 0.000000 0.000000 0.000000 0.000000 0.000000 0.000000 -2.470609 -1.126799 68.883283 0.499251 -1.093888 0.286843 -1.275929 -0.232327 0.034259 0.000000 0.000000 0.000000 -5.071326 -0.915531 68.350610 3.940137 -14.351281 3.800616 -12.961799 28.072746 -0.295851 0.000000 0.000000 0.000000
-50.938572 83.066188 345.757815 1.434858 -0.824397 -68.405723 -0.720751 -0.115131 68.446694 -0.046216 0.294334 0.038073 -2.109185 -2.724005 0.705388 0.000000 0.000000 0.000000 -1.271504 -1.299130 0.016197 1.039451 1.703567 0.025672 -0.783902 -0.500352 -0.148974 -0.000000 0.000000 0.000000 0.000000 0.000000 0.000000 0.000000 0.000000 0.000000 -1.332818 -8.007302 -0.501774 0.566628 13.191245 0.777846 -3.300173 -0.231452 -2.327761 12.393426 11.211926 4.712069 0.000000 0.000000 0.000000 0.000000 0.000000 0.000000 -2.629849 -0.898653 68.085963 0.375510 -1.287958 0.300176 -0.654206 -1.004317 -0.476464 0.000000 0.000000 0.000000 -6.067054 -0.954811 67.320386 4.254484 -13.375683 3.562867 -11.702202 23.000733 -1.795320 0.000000 0.000000 0.000000
-50.960050 83.279808 345.769339 1.373825 -0.788019 -67.551202 -0.676405 -0.067386 67.591496 -0.110160 0.320182 0.032598 -1.731743 -2.938648 0.643677 0.000000 0.000000 0.000000 -1.094835 -1.051030 -0.011786 0.972747 1.537723 0.087081 -2.027211 1.740467 -0.567942 1.229448 -2.343612 0.432465 0.000000 0.000000 0.000000 0.000000 0.000000 0.000000 -1.491487 -11.161131 -0.633161 0.803810 18.809769 0.939762 -3.526893 1.349786 -2.749063 15.476843 13.186430 6.366323 0.000000 0.000000 0.000000 0.000000 0.000000 0.000000 -2.666876 -0.637272 67.231194 0.241271 -1.432007 0.302060 0.578394 -2.858185 -1.635044 0.000000 0.000000 0.000000 -6.617737 -0.921100 66.313723 4.707957 -13.422396 3.634342 -11.658825 22.714295 -1.438969 0.000000 0.000000 0.000000
-51.062129 83.459602 345.684219 1.149831 -0.604568 -66.610334 -0.538412 -0.004577 66.644563 -0.153761 0.339736 0.023747 -1.122525 -3.044408 0.518105 0.000000 0.000000 0.000000 -0.778168 -0.226649 -0.059416 0.746075 0.726529 0.175989 -2.946989 1.206530 -1.041583 3.163918 -2.506240 0.622657 0.000000 0.000000 0.000000 0.000000 0.000000 0.000000 -1.496230 -12.825653 -0.670231 0.980577 21.678930 0.973473 -3.620120 1.421701 -2.944773 23.404484 -2.030896 10.490956 0.000000 0.000000 0.000000 0.000000 0.000000 0.000000 -2.354077 -0.272541 66.328495 0.041802 -1.447629 0.268489 1.644892 -4.434807 -2.583881 0.000000 0.000000 0.000000 -6.911346 -0.895766 65.217886 5.219891 -12.905784 3.581094 -13.287912 19.715905 -4.484703 0.000000 0.000000 0.000000
